<svg xmlns="http://www.w3.org/2000/svg" width="1434" height="746" style="cursor: move;"><g transform="translate(-355.78043158717287,-301.4029650516345) scale(1.5052467474110782)"><path class="link" marker-end="url(#arrow)" d="M687,313, 687,363" style="stroke-width: 0.45; stroke-opacity: 1; stroke: rgb(80, 80, 80); fill: none;"></path><path class="link" marker-end="url(#arrow)" d="M687,313, 727,363" style="stroke-width: 0.45; stroke-opacity: 1; stroke: rgb(80, 80, 80); fill: none;"></path><path class="link" marker-end="url(#arrow)" d="M687,313, 767,363" style="stroke-width: 0.45; stroke-opacity: 1; stroke: rgb(80, 80, 80); fill: none;"></path><path class="link" marker-end="url(#arrow)" d="M727,313, 687,363" style="stroke-width: 0.45; stroke-opacity: 1; stroke: rgb(80, 80, 80); fill: none;"></path><path class="link" marker-end="url(#arrow)" d="M727,313, 727,363" style="stroke-width: 0.45; stroke-opacity: 1; stroke: rgb(80, 80, 80); fill: none;"></path><path class="link" marker-end="url(#arrow)" d="M727,313, 767,363" style="stroke-width: 0.45; stroke-opacity: 1; stroke: rgb(80, 80, 80); fill: none;"></path><path class="link" marker-end="url(#arrow)" d="M647,363, 647,413" style="stroke-width: 0.45; stroke-opacity: 1; stroke: rgb(80, 80, 80); fill: none;"></path><path class="link" marker-end="url(#arrow)" d="M647,363, 687,413" style="stroke-width: 0.45; stroke-opacity: 1; stroke: rgb(80, 80, 80); fill: none;"></path><path class="link" marker-end="url(#arrow)" d="M647,363, 727,413" style="stroke-width: 0.45; stroke-opacity: 1; stroke: rgb(80, 80, 80); fill: none;"></path><path class="link" marker-end="url(#arrow)" d="M647,363, 767,413" style="stroke-width: 0.45; stroke-opacity: 1; stroke: rgb(80, 80, 80); fill: none;"></path><path class="link" marker-end="url(#arrow)" d="M647,363, 807,413" style="stroke-width: 0.45; stroke-opacity: 1; stroke: rgb(80, 80, 80); fill: none;"></path><path class="link" marker-end="url(#arrow)" d="M687,363, 647,413" style="stroke-width: 0.45; stroke-opacity: 1; stroke: rgb(80, 80, 80); fill: none;"></path><path class="link" marker-end="url(#arrow)" d="M687,363, 687,413" style="stroke-width: 0.45; stroke-opacity: 1; stroke: rgb(80, 80, 80); fill: none;"></path><path class="link" marker-end="url(#arrow)" d="M687,363, 727,413" style="stroke-width: 0.45; stroke-opacity: 1; stroke: rgb(80, 80, 80); fill: none;"></path><path class="link" marker-end="url(#arrow)" d="M687,363, 767,413" style="stroke-width: 0.45; stroke-opacity: 1; stroke: rgb(80, 80, 80); fill: none;"></path><path class="link" marker-end="url(#arrow)" d="M687,363, 807,413" style="stroke-width: 0.45; stroke-opacity: 1; stroke: rgb(80, 80, 80); fill: none;"></path><path class="link" marker-end="url(#arrow)" d="M727,363, 647,413" style="stroke-width: 0.45; stroke-opacity: 1; stroke: rgb(80, 80, 80); fill: none;"></path><path class="link" marker-end="url(#arrow)" d="M727,363, 687,413" style="stroke-width: 0.45; stroke-opacity: 1; stroke: rgb(80, 80, 80); fill: none;"></path><path class="link" marker-end="url(#arrow)" d="M727,363, 727,413" style="stroke-width: 0.45; stroke-opacity: 1; stroke: rgb(80, 80, 80); fill: none;"></path><path class="link" marker-end="url(#arrow)" d="M727,363, 767,413" style="stroke-width: 0.45; stroke-opacity: 1; stroke: rgb(80, 80, 80); fill: none;"></path><path class="link" marker-end="url(#arrow)" d="M727,363, 807,413" style="stroke-width: 0.45; stroke-opacity: 1; stroke: rgb(80, 80, 80); fill: none;"></path><path class="link" marker-end="url(#arrow)" d="M767,363, 647,413" style="stroke-width: 0.45; stroke-opacity: 1; stroke: rgb(80, 80, 80); fill: none;"></path><path class="link" marker-end="url(#arrow)" d="M767,363, 687,413" style="stroke-width: 0.45; stroke-opacity: 1; stroke: rgb(80, 80, 80); fill: none;"></path><path class="link" marker-end="url(#arrow)" d="M767,363, 727,413" style="stroke-width: 0.45; stroke-opacity: 1; stroke: rgb(80, 80, 80); fill: none;"></path><path class="link" marker-end="url(#arrow)" d="M767,363, 767,413" style="stroke-width: 0.45; stroke-opacity: 1; stroke: rgb(80, 80, 80); fill: none;"></path><path class="link" marker-end="url(#arrow)" d="M767,363, 807,413" style="stroke-width: 0.45; stroke-opacity: 1; stroke: rgb(80, 80, 80); fill: none;"></path><path class="link" marker-end="url(#arrow)" d="M607,413, 647,463" style="stroke-width: 0.45; stroke-opacity: 1; stroke: rgb(80, 80, 80); fill: none;"></path><path class="link" marker-end="url(#arrow)" d="M607,413, 687,463" style="stroke-width: 0.45; stroke-opacity: 1; stroke: rgb(80, 80, 80); fill: none;"></path><path class="link" marker-end="url(#arrow)" d="M607,413, 727,463" style="stroke-width: 0.45; stroke-opacity: 1; stroke: rgb(80, 80, 80); fill: none;"></path><path class="link" marker-end="url(#arrow)" d="M607,413, 767,463" style="stroke-width: 0.45; stroke-opacity: 1; stroke: rgb(80, 80, 80); fill: none;"></path><path class="link" marker-end="url(#arrow)" d="M607,413, 807,463" style="stroke-width: 0.45; stroke-opacity: 1; stroke: rgb(80, 80, 80); fill: none;"></path><path class="link" marker-end="url(#arrow)" d="M647,413, 647,463" style="stroke-width: 0.45; stroke-opacity: 1; stroke: rgb(80, 80, 80); fill: none;"></path><path class="link" marker-end="url(#arrow)" d="M647,413, 687,463" style="stroke-width: 0.45; stroke-opacity: 1; stroke: rgb(80, 80, 80); fill: none;"></path><path class="link" marker-end="url(#arrow)" d="M647,413, 727,463" style="stroke-width: 0.45; stroke-opacity: 1; stroke: rgb(80, 80, 80); fill: none;"></path><path class="link" marker-end="url(#arrow)" d="M647,413, 767,463" style="stroke-width: 0.45; stroke-opacity: 1; stroke: rgb(80, 80, 80); fill: none;"></path><path class="link" marker-end="url(#arrow)" d="M647,413, 807,463" style="stroke-width: 0.45; stroke-opacity: 1; stroke: rgb(80, 80, 80); fill: none;"></path><path class="link" marker-end="url(#arrow)" d="M687,413, 647,463" style="stroke-width: 0.45; stroke-opacity: 1; stroke: rgb(80, 80, 80); fill: none;"></path><path class="link" marker-end="url(#arrow)" d="M687,413, 687,463" style="stroke-width: 0.45; stroke-opacity: 1; stroke: rgb(80, 80, 80); fill: none;"></path><path class="link" marker-end="url(#arrow)" d="M687,413, 727,463" style="stroke-width: 0.45; stroke-opacity: 1; stroke: rgb(80, 80, 80); fill: none;"></path><path class="link" marker-end="url(#arrow)" d="M687,413, 767,463" style="stroke-width: 0.45; stroke-opacity: 1; stroke: rgb(80, 80, 80); fill: none;"></path><path class="link" marker-end="url(#arrow)" d="M687,413, 807,463" style="stroke-width: 0.45; stroke-opacity: 1; stroke: rgb(80, 80, 80); fill: none;"></path><path class="link" marker-end="url(#arrow)" d="M727,413, 647,463" style="stroke-width: 0.45; stroke-opacity: 1; stroke: rgb(80, 80, 80); fill: none;"></path><path class="link" marker-end="url(#arrow)" d="M727,413, 687,463" style="stroke-width: 0.45; stroke-opacity: 1; stroke: rgb(80, 80, 80); fill: none;"></path><path class="link" marker-end="url(#arrow)" d="M727,413, 727,463" style="stroke-width: 0.45; stroke-opacity: 1; stroke: rgb(80, 80, 80); fill: none;"></path><path class="link" marker-end="url(#arrow)" d="M727,413, 767,463" style="stroke-width: 0.45; stroke-opacity: 1; stroke: rgb(80, 80, 80); fill: none;"></path><path class="link" marker-end="url(#arrow)" d="M727,413, 807,463" style="stroke-width: 0.45; stroke-opacity: 1; stroke: rgb(80, 80, 80); fill: none;"></path><path class="link" marker-end="url(#arrow)" d="M767,413, 647,463" style="stroke-width: 0.45; stroke-opacity: 1; stroke: rgb(80, 80, 80); fill: none;"></path><path class="link" marker-end="url(#arrow)" d="M767,413, 687,463" style="stroke-width: 0.45; stroke-opacity: 1; stroke: rgb(80, 80, 80); fill: none;"></path><path class="link" marker-end="url(#arrow)" d="M767,413, 727,463" style="stroke-width: 0.45; stroke-opacity: 1; stroke: rgb(80, 80, 80); fill: none;"></path><path class="link" marker-end="url(#arrow)" d="M767,413, 767,463" style="stroke-width: 0.45; stroke-opacity: 1; stroke: rgb(80, 80, 80); fill: none;"></path><path class="link" marker-end="url(#arrow)" d="M767,413, 807,463" style="stroke-width: 0.45; stroke-opacity: 1; stroke: rgb(80, 80, 80); fill: none;"></path><path class="link" marker-end="url(#arrow)" d="M807,413, 647,463" style="stroke-width: 0.45; stroke-opacity: 1; stroke: rgb(80, 80, 80); fill: none;"></path><path class="link" marker-end="url(#arrow)" d="M807,413, 687,463" style="stroke-width: 0.45; stroke-opacity: 1; stroke: rgb(80, 80, 80); fill: none;"></path><path class="link" marker-end="url(#arrow)" d="M807,413, 727,463" style="stroke-width: 0.45; stroke-opacity: 1; stroke: rgb(80, 80, 80); fill: none;"></path><path class="link" marker-end="url(#arrow)" d="M807,413, 767,463" style="stroke-width: 0.45; stroke-opacity: 1; stroke: rgb(80, 80, 80); fill: none;"></path><path class="link" marker-end="url(#arrow)" d="M807,413, 807,463" style="stroke-width: 0.45; stroke-opacity: 1; stroke: rgb(80, 80, 80); fill: none;"></path><path class="link" marker-end="url(#arrow)" d="M607,463, 687,513" style="stroke-width: 0.45; stroke-opacity: 1; stroke: rgb(80, 80, 80); fill: none;"></path><path class="link" marker-end="url(#arrow)" d="M607,463, 727,513" style="stroke-width: 0.45; stroke-opacity: 1; stroke: rgb(80, 80, 80); fill: none;"></path><path class="link" marker-end="url(#arrow)" d="M607,463, 767,513" style="stroke-width: 0.45; stroke-opacity: 1; stroke: rgb(80, 80, 80); fill: none;"></path><path class="link" marker-end="url(#arrow)" d="M647,463, 687,513" style="stroke-width: 0.45; stroke-opacity: 1; stroke: rgb(80, 80, 80); fill: none;"></path><path class="link" marker-end="url(#arrow)" d="M647,463, 727,513" style="stroke-width: 0.45; stroke-opacity: 1; stroke: rgb(80, 80, 80); fill: none;"></path><path class="link" marker-end="url(#arrow)" d="M647,463, 767,513" style="stroke-width: 0.45; stroke-opacity: 1; stroke: rgb(80, 80, 80); fill: none;"></path><path class="link" marker-end="url(#arrow)" d="M687,463, 687,513" style="stroke-width: 0.45; stroke-opacity: 1; stroke: rgb(80, 80, 80); fill: none;"></path><path class="link" marker-end="url(#arrow)" d="M687,463, 727,513" style="stroke-width: 0.45; stroke-opacity: 1; stroke: rgb(80, 80, 80); fill: none;"></path><path class="link" marker-end="url(#arrow)" d="M687,463, 767,513" style="stroke-width: 0.45; stroke-opacity: 1; stroke: rgb(80, 80, 80); fill: none;"></path><path class="link" marker-end="url(#arrow)" d="M727,463, 687,513" style="stroke-width: 0.45; stroke-opacity: 1; stroke: rgb(80, 80, 80); fill: none;"></path><path class="link" marker-end="url(#arrow)" d="M727,463, 727,513" style="stroke-width: 0.45; stroke-opacity: 1; stroke: rgb(80, 80, 80); fill: none;"></path><path class="link" marker-end="url(#arrow)" d="M727,463, 767,513" style="stroke-width: 0.45; stroke-opacity: 1; stroke: rgb(80, 80, 80); fill: none;"></path><path class="link" marker-end="url(#arrow)" d="M767,463, 687,513" style="stroke-width: 0.45; stroke-opacity: 1; stroke: rgb(80, 80, 80); fill: none;"></path><path class="link" marker-end="url(#arrow)" d="M767,463, 727,513" style="stroke-width: 0.45; stroke-opacity: 1; stroke: rgb(80, 80, 80); fill: none;"></path><path class="link" marker-end="url(#arrow)" d="M767,463, 767,513" style="stroke-width: 0.45; stroke-opacity: 1; stroke: rgb(80, 80, 80); fill: none;"></path><path class="link" marker-end="url(#arrow)" d="M807,463, 687,513" style="stroke-width: 0.45; stroke-opacity: 1; stroke: rgb(80, 80, 80); fill: none;"></path><path class="link" marker-end="url(#arrow)" d="M807,463, 727,513" style="stroke-width: 0.45; stroke-opacity: 1; stroke: rgb(80, 80, 80); fill: none;"></path><path class="link" marker-end="url(#arrow)" d="M807,463, 767,513" style="stroke-width: 0.45; stroke-opacity: 1; stroke: rgb(80, 80, 80); fill: none;"></path><path class="link" marker-end="url(#arrow)" d="M647,513, 687,563" style="stroke-width: 0.45; stroke-opacity: 1; stroke: rgb(80, 80, 80); fill: none;"></path><path class="link" marker-end="url(#arrow)" d="M647,513, 727,563" style="stroke-width: 0.45; stroke-opacity: 1; stroke: rgb(80, 80, 80); fill: none;"></path><path class="link" marker-end="url(#arrow)" d="M687,513, 687,563" style="stroke-width: 0.45; stroke-opacity: 1; stroke: rgb(80, 80, 80); fill: none;"></path><path class="link" marker-end="url(#arrow)" d="M687,513, 727,563" style="stroke-width: 0.45; stroke-opacity: 1; stroke: rgb(80, 80, 80); fill: none;"></path><path class="link" marker-end="url(#arrow)" d="M727,513, 687,563" style="stroke-width: 0.45; stroke-opacity: 1; stroke: rgb(80, 80, 80); fill: none;"></path><path class="link" marker-end="url(#arrow)" d="M727,513, 727,563" style="stroke-width: 0.45; stroke-opacity: 1; stroke: rgb(80, 80, 80); fill: none;"></path><path class="link" marker-end="url(#arrow)" d="M767,513, 687,563" style="stroke-width: 0.45; stroke-opacity: 1; stroke: rgb(80, 80, 80); fill: none;"></path><path class="link" marker-end="url(#arrow)" d="M767,513, 727,563" style="stroke-width: 0.45; stroke-opacity: 1; stroke: rgb(80, 80, 80); fill: none;"></path><path class="link" marker-end="url(#arrow)" d="M687,313, 647,363" style="stroke-width: 0.45; stroke-opacity: 1; stroke: rgb(80, 80, 80); fill: none;"></path><path class="link" marker-end="url(#arrow)" d="M727,313, 647,363" style="stroke-width: 0.45; stroke-opacity: 1; stroke: rgb(80, 80, 80); fill: none;"></path><path class="link" marker-end="url(#arrow)" d="M647,363, 607,413" style="stroke-width: 0.45; stroke-opacity: 1; stroke: rgb(80, 80, 80); fill: none;"></path><path class="link" marker-end="url(#arrow)" d="M687,363, 607,413" style="stroke-width: 0.45; stroke-opacity: 1; stroke: rgb(80, 80, 80); fill: none;"></path><path class="link" marker-end="url(#arrow)" d="M727,363, 607,413" style="stroke-width: 0.45; stroke-opacity: 1; stroke: rgb(80, 80, 80); fill: none;"></path><path class="link" marker-end="url(#arrow)" d="M767,363, 607,413" style="stroke-width: 0.45; stroke-opacity: 1; stroke: rgb(80, 80, 80); fill: none;"></path><path class="link" marker-end="url(#arrow)" d="M607,413, 607,463" style="stroke-width: 0.45; stroke-opacity: 1; stroke: rgb(80, 80, 80); fill: none;"></path><path class="link" marker-end="url(#arrow)" d="M647,413, 607,463" style="stroke-width: 0.45; stroke-opacity: 1; stroke: rgb(80, 80, 80); fill: none;"></path><path class="link" marker-end="url(#arrow)" d="M687,413, 607,463" style="stroke-width: 0.45; stroke-opacity: 1; stroke: rgb(80, 80, 80); fill: none;"></path><path class="link" marker-end="url(#arrow)" d="M727,413, 607,463" style="stroke-width: 0.45; stroke-opacity: 1; stroke: rgb(80, 80, 80); fill: none;"></path><path class="link" marker-end="url(#arrow)" d="M767,413, 607,463" style="stroke-width: 0.45; stroke-opacity: 1; stroke: rgb(80, 80, 80); fill: none;"></path><path class="link" marker-end="url(#arrow)" d="M807,413, 607,463" style="stroke-width: 0.45; stroke-opacity: 1; stroke: rgb(80, 80, 80); fill: none;"></path><path class="link" marker-end="url(#arrow)" d="M607,463, 647,513" style="stroke-width: 0.45; stroke-opacity: 1; stroke: rgb(80, 80, 80); fill: none;"></path><path class="link" marker-end="url(#arrow)" d="M647,463, 647,513" style="stroke-width: 0.45; stroke-opacity: 1; stroke: rgb(80, 80, 80); fill: none;"></path><path class="link" marker-end="url(#arrow)" d="M687,463, 647,513" style="stroke-width: 0.45; stroke-opacity: 1; stroke: rgb(80, 80, 80); fill: none;"></path><path class="link" marker-end="url(#arrow)" d="M727,463, 647,513" style="stroke-width: 0.45; stroke-opacity: 1; stroke: rgb(80, 80, 80); fill: none;"></path><path class="link" marker-end="url(#arrow)" d="M767,463, 647,513" style="stroke-width: 0.45; stroke-opacity: 1; stroke: rgb(80, 80, 80); fill: none;"></path><path class="link" marker-end="url(#arrow)" d="M807,463, 647,513" style="stroke-width: 0.45; stroke-opacity: 1; stroke: rgb(80, 80, 80); fill: none;"></path><circle r="10" class="node" id="0_0" cx="687" cy="313" style="fill: rgb(255, 255, 255); stroke: rgb(51, 51, 51);"></circle><circle r="10" class="node" id="0_1" cx="727" cy="313" style="fill: rgb(255, 255, 255); stroke: rgb(51, 51, 51);"></circle><circle r="10" class="node" id="1_0" cx="647" cy="363" style="fill: rgb(255, 255, 255); stroke: rgb(51, 51, 51);"></circle><circle r="10" class="node" id="1_1" cx="687" cy="363" style="fill: rgb(255, 255, 255); stroke: rgb(51, 51, 51);"></circle><circle r="10" class="node" id="1_2" cx="727" cy="363" style="fill: rgb(255, 255, 255); stroke: rgb(51, 51, 51);"></circle><circle r="10" class="node" id="1_3" cx="767" cy="363" style="fill: rgb(255, 255, 255); stroke: rgb(51, 51, 51);"></circle><circle r="10" class="node" id="2_0" cx="607" cy="413" style="fill: rgb(255, 255, 255); stroke: rgb(51, 51, 51);"></circle><circle r="10" class="node" id="2_1" cx="647" cy="413" style="fill: rgb(255, 255, 255); stroke: rgb(51, 51, 51);"></circle><circle r="10" class="node" id="2_2" cx="687" cy="413" style="fill: rgb(255, 255, 255); stroke: rgb(51, 51, 51);"></circle><circle r="10" class="node" id="2_3" cx="727" cy="413" style="fill: rgb(255, 255, 255); stroke: rgb(51, 51, 51);"></circle><circle r="10" class="node" id="2_4" cx="767" cy="413" style="fill: rgb(255, 255, 255); stroke: rgb(51, 51, 51);"></circle><circle r="10" class="node" id="2_5" cx="807" cy="413" style="fill: rgb(255, 255, 255); stroke: rgb(51, 51, 51);"></circle><circle r="10" class="node" id="3_0" cx="607" cy="463" style="fill: rgb(255, 255, 255); stroke: rgb(51, 51, 51);"></circle><text class="text" dy=".35em" x="847" y="313" style="font-size: 12px;">Input Layer ∈ ℝ²</text><text class="text" dy=".35em" x="847" y="363" style="font-size: 12px;">Hidden Layer ∈ ℝ⁴</text><text class="text" dy=".35em" x="847" y="413" style="font-size: 12px;">Hidden Layer ∈ ℝ⁶</text><text class="text" dy=".35em" x="847" y="463" style="font-size: 12px;">Hidden Layer ∈ ℝ⁶</text><circle r="10" class="node" id="3_1" cx="647" cy="463" style="fill: rgb(255, 255, 255); stroke: rgb(51, 51, 51);"></circle><circle r="10" class="node" id="3_2" cx="687" cy="463" style="fill: rgb(255, 255, 255); stroke: rgb(51, 51, 51);"></circle><circle r="10" class="node" id="3_3" cx="727" cy="463" style="fill: rgb(255, 255, 255); stroke: rgb(51, 51, 51);"></circle><circle r="10" class="node" id="3_4" cx="767" cy="463" style="fill: rgb(255, 255, 255); stroke: rgb(51, 51, 51);"></circle><circle r="10" class="node" id="3_5" cx="807" cy="463" style="fill: rgb(255, 255, 255); stroke: rgb(51, 51, 51);"></circle><circle r="10" class="node" id="4_0" cx="647" cy="513" style="fill: rgb(255, 255, 255); stroke: rgb(51, 51, 51);"></circle><circle r="10" class="node" id="4_1" cx="687" cy="513" style="fill: rgb(255, 255, 255); stroke: rgb(51, 51, 51);"></circle><circle r="10" class="node" id="4_2" cx="727" cy="513" style="fill: rgb(255, 255, 255); stroke: rgb(51, 51, 51);"></circle><circle r="10" class="node" id="4_3" cx="767" cy="513" style="fill: rgb(255, 255, 255); stroke: rgb(51, 51, 51);"></circle><text class="text" dy=".35em" x="847" y="513" style="font-size: 12px;">Hidden Layer ∈ ℝ⁴</text><circle r="10" class="node" id="5_0" cx="687" cy="563" style="fill: rgb(255, 255, 255); stroke: rgb(51, 51, 51);"></circle><circle r="10" class="node" id="5_1" cx="727" cy="563" style="fill: rgb(255, 255, 255); stroke: rgb(51, 51, 51);"></circle><text class="text" dy=".35em" x="847" y="563" style="font-size: 12px;">Output Layer ∈ ℝ²</text></g><defs><marker id="arrow" viewBox="0 -5 10 10" markerWidth="7" markerHeight="7" orient="auto" refX="40"><path d="M0,-5L10,0L0,5" style="stroke: rgb(80, 80, 80); fill: rgb(80, 80, 80);"></path></marker></defs></svg>